# MagicaVoxel @ Ephtracy

# group
o 

# material
mtllib Candado2.mtl
usemtl palette

# normals
vn -1 0 0
vn 1 0 0
vn 0 0 1
vn 0 0 -1
vn 0 -1 0
vn 0 1 0

# texcoords
vt 0.361328 0.5
vt 0.369141 0.5
vt 0.513672 0.5
vt 0.939453 0.5
vt 0.947266 0.5
vt 0.951172 0.5
vt 0.955078 0.5

# verts
v -0.7 0.2 0.4
v -0.7 0.2 0
v -0.7 1.5 0.4
v -0.7 1.5 0
v -0.6 0.1 0.4
v -0.6 0.1 0
v -0.6 0.2 0.4
v -0.6 0.2 0
v -0.6 0.7 0
v -0.6 0.7 -0.1
v -0.6 1 0
v -0.6 1 -0.1
v -0.5 0 0.4
v -0.5 0 0
v -0.5 0.1 0.4
v -0.5 0.1 0
v -0.5 0.4 0.5
v -0.5 0.4 0.4
v -0.5 0.6 0
v -0.5 0.6 -0.1
v -0.5 0.7 0
v -0.5 0.7 -0.1
v -0.5 1 0
v -0.5 1 -0.1
v -0.5 1.1 0
v -0.5 1.1 -0.1
v -0.5 1.3 0.5
v -0.5 1.3 0.4
v -0.5 1.5 0.3
v -0.5 1.5 0.1
v -0.5 2 0.3
v -0.5 2 0.1
v -0.4 0.3 0.5
v -0.4 0.3 0.4
v -0.4 0.4 0.5
v -0.4 0.4 0.4
v -0.4 0.5 0
v -0.4 0.5 -0.1
v -0.4 0.6 0
v -0.4 0.6 -0.1
v -0.4 1.1 0
v -0.4 1.1 -0.1
v -0.4 1.2 0
v -0.4 1.2 -0.1
v -0.4 2 0.3
v -0.4 2 0.1
v -0.4 2.1 0.3
v -0.4 2.1 0.1
v -0.3 0.2 0.5
v -0.3 0.2 0.4
v -0.3 0.3 0.5
v -0.3 0.3 0.4
v -0.3 0.4 0
v -0.3 0.4 -0.1
v -0.3 0.5 0
v -0.3 0.5 -0.1
v -0.3 0.7 -0.1
v -0.3 0.7 -0.2
v -0.3 1 -0.1
v -0.3 1 -0.2
v -0.3 1.2 0
v -0.3 1.2 -0.1
v -0.3 1.3 0
v -0.3 1.3 -0.1
v -0.3 2.1 0.3
v -0.3 2.1 0.1
v -0.3 2.2 0.3
v -0.3 2.2 0.1
v -0.2 0.6 -0.1
v -0.2 0.6 -0.2
v -0.2 0.7 -0.1
v -0.2 0.7 -0.2
v -0.2 1 -0.1
v -0.2 1 -0.2
v -0.2 1.1 -0.1
v -0.2 1.1 -0.2
v -0.2 2.2 0.3
v -0.2 2.2 0.1
v -0.2 2.3 0.3
v -0.2 2.3 0.1
v 0.1 0.6 0.5
v 0.1 0.6 0.4
v 0.1 0.7 -0.1
v 0.1 0.7 -0.2
v 0.1 1 0.5
v 0.1 1 0.4
v 0.1 1 -0.1
v 0.1 1 -0.2
v 0.1 2.1 0.3
v 0.1 2.1 0.1
v 0.1 2.2 0.3
v 0.1 2.2 0.1
v 0.2 2 0.3
v 0.2 2 0.1
v 0.2 2.1 0.3
v 0.2 2.1 0.1
v 0.3 1.5 0.3
v 0.3 1.5 0.1
v 0.3 2 0.3
v 0.3 2 0.1
v -0.3 1.5 0.3
v -0.3 1.5 0.1
v -0.3 2 0.3
v -0.3 2 0.1
v -0.2 2 0.3
v -0.2 2 0.1
v -0.2 2.1 0.3
v -0.2 2.1 0.1
v -0.1 0.6 0.5
v -0.1 0.6 0.4
v -0.1 0.7 -0.1
v -0.1 0.7 -0.2
v -0.1 1 0.5
v -0.1 1 0.4
v -0.1 1 -0.1
v -0.1 1 -0.2
v -0.1 2.1 0.3
v -0.1 2.1 0.1
v -0.1 2.2 0.3
v -0.1 2.2 0.1
v 0.2 0.6 -0.1
v 0.2 0.6 -0.2
v 0.2 0.7 -0.1
v 0.2 0.7 -0.2
v 0.2 1 -0.1
v 0.2 1 -0.2
v 0.2 1.1 -0.1
v 0.2 1.1 -0.2
v 0.2 2.2 0.3
v 0.2 2.2 0.1
v 0.2 2.3 0.3
v 0.2 2.3 0.1
v 0.3 0.2 0.5
v 0.3 0.2 0.4
v 0.3 0.3 0.5
v 0.3 0.3 0.4
v 0.3 0.4 0
v 0.3 0.4 -0.1
v 0.3 0.5 0
v 0.3 0.5 -0.1
v 0.3 0.7 -0.1
v 0.3 0.7 -0.2
v 0.3 1 -0.1
v 0.3 1 -0.2
v 0.3 1.2 0
v 0.3 1.2 -0.1
v 0.3 1.3 0
v 0.3 1.3 -0.1
v 0.3 2.1 0.3
v 0.3 2.1 0.1
v 0.3 2.2 0.3
v 0.3 2.2 0.1
v 0.4 0.3 0.5
v 0.4 0.3 0.4
v 0.4 0.4 0.5
v 0.4 0.4 0.4
v 0.4 0.5 0
v 0.4 0.5 -0.1
v 0.4 0.6 0
v 0.4 0.6 -0.1
v 0.4 1.1 0
v 0.4 1.1 -0.1
v 0.4 1.2 0
v 0.4 1.2 -0.1
v 0.4 2 0.3
v 0.4 2 0.1
v 0.4 2.1 0.3
v 0.4 2.1 0.1
v 0.5 0 0.4
v 0.5 0 0
v 0.5 0.1 0.4
v 0.5 0.1 0
v 0.5 0.4 0.5
v 0.5 0.4 0.4
v 0.5 0.6 0
v 0.5 0.6 -0.1
v 0.5 0.7 0
v 0.5 0.7 -0.1
v 0.5 1 0
v 0.5 1 -0.1
v 0.5 1.1 0
v 0.5 1.1 -0.1
v 0.5 1.3 0.5
v 0.5 1.3 0.4
v 0.5 1.5 0.3
v 0.5 1.5 0.1
v 0.5 2 0.3
v 0.5 2 0.1
v 0.6 0.1 0.4
v 0.6 0.1 0
v 0.6 0.2 0.4
v 0.6 0.2 0
v 0.6 0.7 0
v 0.6 0.7 -0.1
v 0.6 1 0
v 0.6 1 -0.1
v 0.7 0.2 0.4
v 0.7 0.2 0
v 0.7 1.5 0.4
v 0.7 1.5 0
v -0.5 0.4 0.5
v -0.5 1.3 0.5
v -0.4 0.3 0.5
v -0.4 0.4 0.5
v -0.3 0.2 0.5
v -0.3 0.3 0.5
v -0.1 0.6 0.5
v -0.1 1 0.5
v 0.1 0.6 0.5
v 0.1 1 0.5
v 0.3 0.2 0.5
v 0.3 0.3 0.5
v 0.4 0.3 0.5
v 0.4 0.4 0.5
v 0.5 0.4 0.5
v 0.5 1.3 0.5
v -0.7 0.2 0.4
v -0.7 1.5 0.4
v -0.6 0.1 0.4
v -0.6 0.2 0.4
v -0.5 0 0.4
v -0.5 0.1 0.4
v -0.5 0.4 0.4
v -0.5 1.3 0.4
v -0.4 0.3 0.4
v -0.4 0.4 0.4
v -0.3 0.2 0.4
v -0.3 0.3 0.4
v -0.1 0.6 0.4
v -0.1 1 0.4
v 0.1 0.6 0.4
v 0.1 1 0.4
v 0.3 0.2 0.4
v 0.3 0.3 0.4
v 0.4 0.3 0.4
v 0.4 0.4 0.4
v 0.5 0 0.4
v 0.5 0.1 0.4
v 0.5 0.4 0.4
v 0.5 1.3 0.4
v 0.6 0.1 0.4
v 0.6 0.2 0.4
v 0.7 0.2 0.4
v 0.7 1.5 0.4
v -0.5 1.5 0.3
v -0.5 2 0.3
v -0.4 2 0.3
v -0.4 2.1 0.3
v -0.3 1.5 0.3
v -0.3 2 0.3
v -0.3 2.1 0.3
v -0.3 2.2 0.3
v -0.2 2 0.3
v -0.2 2.1 0.3
v -0.2 2.2 0.3
v -0.2 2.3 0.3
v -0.1 2.1 0.3
v -0.1 2.2 0.3
v 0.1 2.1 0.3
v 0.1 2.2 0.3
v 0.2 2 0.3
v 0.2 2.1 0.3
v 0.2 2.2 0.3
v 0.2 2.3 0.3
v 0.3 1.5 0.3
v 0.3 2 0.3
v 0.3 2.1 0.3
v 0.3 2.2 0.3
v 0.4 2 0.3
v 0.4 2.1 0.3
v 0.5 1.5 0.3
v 0.5 2 0.3
v -0.5 1.5 0.1
v -0.5 2 0.1
v -0.4 2 0.1
v -0.4 2.1 0.1
v -0.3 1.5 0.1
v -0.3 2 0.1
v -0.3 2.1 0.1
v -0.3 2.2 0.1
v -0.2 2 0.1
v -0.2 2.1 0.1
v -0.2 2.2 0.1
v -0.2 2.3 0.1
v -0.1 2.1 0.1
v -0.1 2.2 0.1
v 0.1 2.1 0.1
v 0.1 2.2 0.1
v 0.2 2 0.1
v 0.2 2.1 0.1
v 0.2 2.2 0.1
v 0.2 2.3 0.1
v 0.3 1.5 0.1
v 0.3 2 0.1
v 0.3 2.1 0.1
v 0.3 2.2 0.1
v 0.4 2 0.1
v 0.4 2.1 0.1
v 0.5 1.5 0.1
v 0.5 2 0.1
v -0.7 0.2 0
v -0.7 1.5 0
v -0.6 0.1 0
v -0.6 0.2 0
v -0.6 0.7 0
v -0.6 1 0
v -0.5 0 0
v -0.5 0.1 0
v -0.5 0.6 0
v -0.5 0.7 0
v -0.5 1 0
v -0.5 1.1 0
v -0.4 0.5 0
v -0.4 0.6 0
v -0.4 1.1 0
v -0.4 1.2 0
v -0.3 0.4 0
v -0.3 0.5 0
v -0.3 1.2 0
v -0.3 1.3 0
v 0.3 0.4 0
v 0.3 0.5 0
v 0.3 1.2 0
v 0.3 1.3 0
v 0.4 0.5 0
v 0.4 0.6 0
v 0.4 1.1 0
v 0.4 1.2 0
v 0.5 0 0
v 0.5 0.1 0
v 0.5 0.6 0
v 0.5 0.7 0
v 0.5 1 0
v 0.5 1.1 0
v 0.6 0.1 0
v 0.6 0.2 0
v 0.6 0.7 0
v 0.6 1 0
v 0.7 0.2 0
v 0.7 1.5 0
v -0.6 0.7 -0.1
v -0.6 1 -0.1
v -0.5 0.6 -0.1
v -0.5 0.7 -0.1
v -0.5 1 -0.1
v -0.5 1.1 -0.1
v -0.4 0.5 -0.1
v -0.4 0.6 -0.1
v -0.4 1.1 -0.1
v -0.4 1.2 -0.1
v -0.3 0.4 -0.1
v -0.3 0.5 -0.1
v -0.3 0.7 -0.1
v -0.3 1 -0.1
v -0.3 1.2 -0.1
v -0.3 1.3 -0.1
v -0.2 0.6 -0.1
v -0.2 0.7 -0.1
v -0.2 1 -0.1
v -0.2 1.1 -0.1
v -0.1 0.7 -0.1
v -0.1 1 -0.1
v 0.1 0.7 -0.1
v 0.1 1 -0.1
v 0.2 0.6 -0.1
v 0.2 0.7 -0.1
v 0.2 1 -0.1
v 0.2 1.1 -0.1
v 0.3 0.4 -0.1
v 0.3 0.5 -0.1
v 0.3 0.7 -0.1
v 0.3 1 -0.1
v 0.3 1.2 -0.1
v 0.3 1.3 -0.1
v 0.4 0.5 -0.1
v 0.4 0.6 -0.1
v 0.4 1.1 -0.1
v 0.4 1.2 -0.1
v 0.5 0.6 -0.1
v 0.5 0.7 -0.1
v 0.5 1 -0.1
v 0.5 1.1 -0.1
v 0.6 0.7 -0.1
v 0.6 1 -0.1
v -0.3 0.7 -0.2
v -0.3 1 -0.2
v -0.2 0.6 -0.2
v -0.2 0.7 -0.2
v -0.2 1 -0.2
v -0.2 1.1 -0.2
v -0.1 0.7 -0.2
v -0.1 1 -0.2
v 0.1 0.7 -0.2
v 0.1 1 -0.2
v 0.2 0.6 -0.2
v 0.2 0.7 -0.2
v 0.2 1 -0.2
v 0.2 1.1 -0.2
v 0.3 0.7 -0.2
v 0.3 1 -0.2
v -0.5 0 0.4
v 0.5 0 0.4
v -0.5 0 0
v 0.5 0 0
v -0.6 0.1 0.4
v -0.5 0.1 0.4
v 0.5 0.1 0.4
v 0.6 0.1 0.4
v -0.6 0.1 0
v -0.5 0.1 0
v 0.5 0.1 0
v 0.6 0.1 0
v -0.3 0.2 0.5
v 0.3 0.2 0.5
v -0.7 0.2 0.4
v -0.6 0.2 0.4
v -0.3 0.2 0.4
v 0.3 0.2 0.4
v 0.6 0.2 0.4
v 0.7 0.2 0.4
v -0.7 0.2 0
v -0.6 0.2 0
v 0.6 0.2 0
v 0.7 0.2 0
v -0.4 0.3 0.5
v -0.3 0.3 0.5
v 0.3 0.3 0.5
v 0.4 0.3 0.5
v -0.4 0.3 0.4
v -0.3 0.3 0.4
v 0.3 0.3 0.4
v 0.4 0.3 0.4
v -0.5 0.4 0.5
v -0.4 0.4 0.5
v 0.4 0.4 0.5
v 0.5 0.4 0.5
v -0.5 0.4 0.4
v -0.4 0.4 0.4
v 0.4 0.4 0.4
v 0.5 0.4 0.4
v -0.3 0.4 0
v 0.3 0.4 0
v -0.3 0.4 -0.1
v 0.3 0.4 -0.1
v -0.4 0.5 0
v -0.3 0.5 0
v 0.3 0.5 0
v 0.4 0.5 0
v -0.4 0.5 -0.1
v -0.3 0.5 -0.1
v 0.3 0.5 -0.1
v 0.4 0.5 -0.1
v -0.5 0.6 0
v -0.4 0.6 0
v 0.4 0.6 0
v 0.5 0.6 0
v -0.5 0.6 -0.1
v -0.4 0.6 -0.1
v -0.2 0.6 -0.1
v 0.2 0.6 -0.1
v 0.4 0.6 -0.1
v 0.5 0.6 -0.1
v -0.2 0.6 -0.2
v 0.2 0.6 -0.2
v -0.6 0.7 0
v -0.5 0.7 0
v 0.5 0.7 0
v 0.6 0.7 0
v -0.6 0.7 -0.1
v -0.5 0.7 -0.1
v -0.3 0.7 -0.1
v -0.2 0.7 -0.1
v 0.2 0.7 -0.1
v 0.3 0.7 -0.1
v 0.5 0.7 -0.1
v 0.6 0.7 -0.1
v -0.3 0.7 -0.2
v -0.2 0.7 -0.2
v 0.2 0.7 -0.2
v 0.3 0.7 -0.2
v -0.1 1 0.5
v 0.1 1 0.5
v -0.1 1 0.4
v 0.1 1 0.4
v -0.1 1 -0.1
v 0.1 1 -0.1
v -0.1 1 -0.2
v 0.1 1 -0.2
v -0.3 2 0.3
v -0.2 2 0.3
v 0.2 2 0.3
v 0.3 2 0.3
v -0.3 2 0.1
v -0.2 2 0.1
v 0.2 2 0.1
v 0.3 2 0.1
v -0.2 2.1 0.3
v -0.1 2.1 0.3
v 0.1 2.1 0.3
v 0.2 2.1 0.3
v -0.2 2.1 0.1
v -0.1 2.1 0.1
v 0.1 2.1 0.1
v 0.2 2.1 0.1
v -0.1 2.2 0.3
v 0.1 2.2 0.3
v -0.1 2.2 0.1
v 0.1 2.2 0.1
v -0.1 0.6 0.5
v 0.1 0.6 0.5
v -0.1 0.6 0.4
v 0.1 0.6 0.4
v -0.1 0.7 -0.1
v 0.1 0.7 -0.1
v -0.1 0.7 -0.2
v 0.1 0.7 -0.2
v -0.6 1 0
v -0.5 1 0
v 0.5 1 0
v 0.6 1 0
v -0.6 1 -0.1
v -0.5 1 -0.1
v -0.3 1 -0.1
v -0.2 1 -0.1
v 0.2 1 -0.1
v 0.3 1 -0.1
v 0.5 1 -0.1
v 0.6 1 -0.1
v -0.3 1 -0.2
v -0.2 1 -0.2
v 0.2 1 -0.2
v 0.3 1 -0.2
v -0.5 1.1 0
v -0.4 1.1 0
v 0.4 1.1 0
v 0.5 1.1 0
v -0.5 1.1 -0.1
v -0.4 1.1 -0.1
v -0.2 1.1 -0.1
v 0.2 1.1 -0.1
v 0.4 1.1 -0.1
v 0.5 1.1 -0.1
v -0.2 1.1 -0.2
v 0.2 1.1 -0.2
v -0.4 1.2 0
v -0.3 1.2 0
v 0.3 1.2 0
v 0.4 1.2 0
v -0.4 1.2 -0.1
v -0.3 1.2 -0.1
v 0.3 1.2 -0.1
v 0.4 1.2 -0.1
v -0.5 1.3 0.5
v 0.5 1.3 0.5
v -0.5 1.3 0.4
v 0.5 1.3 0.4
v -0.3 1.3 0
v 0.3 1.3 0
v -0.3 1.3 -0.1
v 0.3 1.3 -0.1
v -0.7 1.5 0.4
v 0.7 1.5 0.4
v -0.5 1.5 0.3
v -0.3 1.5 0.3
v 0.3 1.5 0.3
v 0.5 1.5 0.3
v -0.5 1.5 0.1
v -0.3 1.5 0.1
v 0.3 1.5 0.1
v 0.5 1.5 0.1
v -0.7 1.5 0
v 0.7 1.5 0
v -0.5 2 0.3
v -0.4 2 0.3
v 0.4 2 0.3
v 0.5 2 0.3
v -0.5 2 0.1
v -0.4 2 0.1
v 0.4 2 0.1
v 0.5 2 0.1
v -0.4 2.1 0.3
v -0.3 2.1 0.3
v 0.3 2.1 0.3
v 0.4 2.1 0.3
v -0.4 2.1 0.1
v -0.3 2.1 0.1
v 0.3 2.1 0.1
v 0.4 2.1 0.1
v -0.3 2.2 0.3
v -0.2 2.2 0.3
v 0.2 2.2 0.3
v 0.3 2.2 0.3
v -0.3 2.2 0.1
v -0.2 2.2 0.1
v 0.2 2.2 0.1
v 0.3 2.2 0.1
v -0.2 2.3 0.3
v 0.2 2.3 0.3
v -0.2 2.3 0.1
v 0.2 2.3 0.1

# faces
f 3/1/1 2/1/1 1/1/1
f 4/1/1 2/1/1 3/1/1
f 7/1/1 6/1/1 5/1/1
f 8/1/1 6/1/1 7/1/1
f 11/6/1 10/6/1 9/6/1
f 12/6/1 10/6/1 11/6/1
f 15/1/1 14/1/1 13/1/1
f 16/1/1 14/1/1 15/1/1
f 21/6/1 20/6/1 19/6/1
f 22/6/1 20/6/1 21/6/1
f 25/6/1 24/6/1 23/6/1
f 26/6/1 24/6/1 25/6/1
f 27/2/1 18/2/1 17/2/1
f 28/2/1 18/2/1 27/2/1
f 31/5/1 30/5/1 29/5/1
f 32/5/1 30/5/1 31/5/1
f 35/2/1 34/2/1 33/2/1
f 36/2/1 34/2/1 35/2/1
f 39/6/1 38/6/1 37/6/1
f 40/6/1 38/6/1 39/6/1
f 43/6/1 42/6/1 41/6/1
f 44/6/1 42/6/1 43/6/1
f 47/5/1 46/5/1 45/5/1
f 48/5/1 46/5/1 47/5/1
f 51/2/1 50/2/1 49/2/1
f 52/2/1 50/2/1 51/2/1
f 55/6/1 54/6/1 53/6/1
f 56/6/1 54/6/1 55/6/1
f 59/5/1 58/5/1 57/5/1
f 60/5/1 58/5/1 59/5/1
f 63/6/1 62/6/1 61/6/1
f 64/6/1 62/6/1 63/6/1
f 67/5/1 66/5/1 65/5/1
f 68/5/1 66/5/1 67/5/1
f 71/5/1 70/5/1 69/5/1
f 72/5/1 70/5/1 71/5/1
f 75/5/1 74/5/1 73/5/1
f 76/5/1 74/5/1 75/5/1
f 79/5/1 78/5/1 77/5/1
f 80/5/1 78/5/1 79/5/1
f 85/2/1 82/2/1 81/2/1
f 86/2/1 82/2/1 85/2/1
f 87/5/1 84/5/1 83/5/1
f 88/5/1 84/5/1 87/5/1
f 91/5/1 90/5/1 89/5/1
f 92/5/1 90/5/1 91/5/1
f 95/5/1 94/5/1 93/5/1
f 96/5/1 94/5/1 95/5/1
f 99/5/1 98/5/1 97/5/1
f 100/5/1 98/5/1 99/5/1
f 101/5/2 102/5/2 103/5/2
f 103/5/2 102/5/2 104/5/2
f 105/5/2 106/5/2 107/5/2
f 107/5/2 106/5/2 108/5/2
f 109/2/2 110/2/2 113/2/2
f 113/2/2 110/2/2 114/2/2
f 111/5/2 112/5/2 115/5/2
f 115/5/2 112/5/2 116/5/2
f 117/5/2 118/5/2 119/5/2
f 119/5/2 118/5/2 120/5/2
f 121/5/2 122/5/2 123/5/2
f 123/5/2 122/5/2 124/5/2
f 125/5/2 126/5/2 127/5/2
f 127/5/2 126/5/2 128/5/2
f 129/5/2 130/5/2 131/5/2
f 131/5/2 130/5/2 132/5/2
f 133/2/2 134/2/2 135/2/2
f 135/2/2 134/2/2 136/2/2
f 137/6/2 138/6/2 139/6/2
f 139/6/2 138/6/2 140/6/2
f 141/5/2 142/5/2 143/5/2
f 143/5/2 142/5/2 144/5/2
f 145/6/2 146/6/2 147/6/2
f 147/6/2 146/6/2 148/6/2
f 149/5/2 150/5/2 151/5/2
f 151/5/2 150/5/2 152/5/2
f 153/2/2 154/2/2 155/2/2
f 155/2/2 154/2/2 156/2/2
f 157/6/2 158/6/2 159/6/2
f 159/6/2 158/6/2 160/6/2
f 161/6/2 162/6/2 163/6/2
f 163/6/2 162/6/2 164/6/2
f 165/5/2 166/5/2 167/5/2
f 167/5/2 166/5/2 168/5/2
f 169/1/2 170/1/2 171/1/2
f 171/1/2 170/1/2 172/1/2
f 175/6/2 176/6/2 177/6/2
f 177/6/2 176/6/2 178/6/2
f 179/6/2 180/6/2 181/6/2
f 181/6/2 180/6/2 182/6/2
f 173/2/2 174/2/2 183/2/2
f 183/2/2 174/2/2 184/2/2
f 185/5/2 186/5/2 187/5/2
f 187/5/2 186/5/2 188/5/2
f 189/1/2 190/1/2 191/1/2
f 191/1/2 190/1/2 192/1/2
f 193/6/2 194/6/2 195/6/2
f 195/6/2 194/6/2 196/6/2
f 197/1/2 198/1/2 199/1/2
f 199/1/2 198/1/2 200/1/2
f 204/2/3 202/2/3 201/2/3
f 206/2/3 204/2/3 203/2/3
f 207/2/3 202/2/3 204/2/3
f 207/2/3 206/2/3 205/2/3
f 207/2/3 204/2/3 206/2/3
f 208/2/3 202/2/3 207/2/3
f 209/2/3 207/2/3 205/2/3
f 210/2/3 202/2/3 208/2/3
f 211/2/3 209/2/3 205/2/3
f 211/2/3 210/2/3 209/2/3
f 212/2/3 210/2/3 211/2/3
f 213/2/3 210/2/3 212/2/3
f 214/2/3 210/2/3 213/2/3
f 215/2/3 210/2/3 214/2/3
f 216/2/3 202/2/3 210/2/3
f 216/2/3 210/2/3 215/2/3
f 220/1/3 218/1/3 217/1/3
f 222/1/3 220/1/3 219/1/3
f 223/1/3 218/1/3 220/1/3
f 223/1/3 220/1/3 222/1/3
f 224/1/3 218/1/3 223/1/3
f 225/1/3 222/1/3 221/1/3
f 225/1/3 223/1/3 222/1/3
f 226/1/3 223/1/3 225/1/3
f 227/1/3 225/1/3 221/1/3
f 228/1/3 225/1/3 227/1/3
f 231/5/3 230/5/3 229/5/3
f 232/5/3 230/5/3 231/5/3
f 233/1/3 227/1/3 221/1/3
f 235/1/3 234/1/3 233/1/3
f 237/1/3 233/1/3 221/1/3
f 237/1/3 236/1/3 235/1/3
f 237/1/3 235/1/3 233/1/3
f 238/1/3 236/1/3 237/1/3
f 239/1/3 236/1/3 238/1/3
f 240/1/3 218/1/3 224/1/3
f 241/1/3 239/1/3 238/1/3
f 241/1/3 240/1/3 239/1/3
f 242/1/3 240/1/3 241/1/3
f 243/1/3 240/1/3 242/1/3
f 244/1/3 218/1/3 240/1/3
f 244/1/3 240/1/3 243/1/3
f 247/5/3 246/5/3 245/5/3
f 249/5/3 247/5/3 245/5/3
f 249/5/3 248/5/3 247/5/3
f 250/5/3 248/5/3 249/5/3
f 251/5/3 248/5/3 250/5/3
f 253/5/3 252/5/3 251/5/3
f 253/5/3 251/5/3 250/5/3
f 254/5/3 252/5/3 253/5/3
f 255/5/3 252/5/3 254/5/3
f 257/5/3 256/5/3 255/5/3
f 257/5/3 255/5/3 254/5/3
f 258/5/3 256/5/3 257/5/3
f 260/5/3 256/5/3 258/5/3
f 262/5/3 260/5/3 259/5/3
f 263/5/3 256/5/3 260/5/3
f 263/5/3 260/5/3 262/5/3
f 264/5/3 256/5/3 263/5/3
f 266/5/3 262/5/3 261/5/3
f 266/5/3 263/5/3 262/5/3
f 267/5/3 263/5/3 266/5/3
f 268/5/3 263/5/3 267/5/3
f 269/5/3 266/5/3 265/5/3
f 269/5/3 267/5/3 266/5/3
f 270/5/3 267/5/3 269/5/3
f 271/5/3 269/5/3 265/5/3
f 272/5/3 269/5/3 271/5/3
f 273/5/4 274/5/4 275/5/4
f 273/5/4 275/5/4 277/5/4
f 275/5/4 276/5/4 277/5/4
f 277/5/4 276/5/4 278/5/4
f 278/5/4 276/5/4 279/5/4
f 279/5/4 280/5/4 281/5/4
f 278/5/4 279/5/4 281/5/4
f 281/5/4 280/5/4 282/5/4
f 282/5/4 280/5/4 283/5/4
f 283/5/4 284/5/4 285/5/4
f 282/5/4 283/5/4 285/5/4
f 285/5/4 284/5/4 286/5/4
f 286/5/4 284/5/4 288/5/4
f 287/5/4 288/5/4 290/5/4
f 288/5/4 284/5/4 291/5/4
f 290/5/4 288/5/4 291/5/4
f 291/5/4 284/5/4 292/5/4
f 289/5/4 290/5/4 294/5/4
f 290/5/4 291/5/4 294/5/4
f 294/5/4 291/5/4 295/5/4
f 295/5/4 291/5/4 296/5/4
f 293/5/4 294/5/4 297/5/4
f 294/5/4 295/5/4 297/5/4
f 297/5/4 295/5/4 298/5/4
f 293/5/4 297/5/4 299/5/4
f 299/5/4 297/5/4 300/5/4
f 301/1/4 302/1/4 304/1/4
f 304/1/4 302/1/4 305/1/4
f 305/1/4 302/1/4 306/1/4
f 303/1/4 304/1/4 308/1/4
f 304/1/4 305/1/4 308/1/4
f 308/1/4 305/1/4 309/1/4
f 309/1/4 305/1/4 310/1/4
f 306/1/4 302/1/4 311/1/4
f 311/1/4 302/1/4 312/1/4
f 307/1/4 308/1/4 313/1/4
f 308/1/4 309/1/4 313/1/4
f 313/1/4 309/1/4 314/1/4
f 312/1/4 302/1/4 315/1/4
f 315/1/4 302/1/4 316/1/4
f 307/1/4 313/1/4 317/1/4
f 317/1/4 313/1/4 318/1/4
f 316/1/4 302/1/4 319/1/4
f 319/1/4 302/1/4 320/1/4
f 307/1/4 317/1/4 321/1/4
f 320/1/4 302/1/4 324/1/4
f 321/1/4 322/1/4 325/1/4
f 323/1/4 324/1/4 328/1/4
f 325/1/4 326/1/4 329/1/4
f 307/1/4 321/1/4 329/1/4
f 321/1/4 325/1/4 329/1/4
f 329/1/4 326/1/4 330/1/4
f 330/1/4 326/1/4 331/1/4
f 327/1/4 328/1/4 334/1/4
f 331/1/4 332/1/4 335/1/4
f 330/1/4 331/1/4 335/1/4
f 335/1/4 332/1/4 336/1/4
f 336/1/4 332/1/4 337/1/4
f 333/1/4 334/1/4 338/1/4
f 336/1/4 337/1/4 339/1/4
f 337/1/4 338/1/4 339/1/4
f 338/1/4 334/1/4 340/1/4
f 339/1/4 338/1/4 340/1/4
f 328/1/4 324/1/4 340/1/4
f 324/1/4 302/1/4 340/1/4
f 334/1/4 328/1/4 340/1/4
f 341/6/4 342/6/4 344/6/4
f 344/6/4 342/6/4 345/6/4
f 343/6/4 344/6/4 348/6/4
f 345/6/4 346/6/4 348/6/4
f 344/6/4 345/6/4 348/6/4
f 348/6/4 346/6/4 349/6/4
f 347/6/4 348/6/4 352/6/4
f 349/6/4 350/6/4 352/6/4
f 348/6/4 349/6/4 352/6/4
f 352/6/4 350/6/4 353/6/4
f 353/6/4 350/6/4 354/6/4
f 354/6/4 350/6/4 355/6/4
f 351/6/4 352/6/4 357/6/4
f 352/6/4 353/6/4 357/6/4
f 357/6/4 353/6/4 358/6/4
f 355/6/4 356/6/4 359/6/4
f 354/6/4 355/6/4 359/6/4
f 359/6/4 356/6/4 360/6/4
f 361/3/4 362/3/4 363/3/4
f 363/3/4 362/3/4 364/3/4
f 351/6/4 357/6/4 365/6/4
f 360/6/4 356/6/4 368/6/4
f 365/6/4 366/6/4 369/6/4
f 351/6/4 365/6/4 369/6/4
f 369/6/4 366/6/4 370/6/4
f 370/6/4 366/6/4 371/6/4
f 367/6/4 368/6/4 372/6/4
f 368/6/4 356/6/4 373/6/4
f 372/6/4 368/6/4 373/6/4
f 373/6/4 356/6/4 374/6/4
f 370/6/4 371/6/4 375/6/4
f 371/6/4 372/6/4 375/6/4
f 372/6/4 373/6/4 375/6/4
f 375/6/4 373/6/4 376/6/4
f 376/6/4 373/6/4 377/6/4
f 377/6/4 373/6/4 378/6/4
f 376/6/4 377/6/4 379/6/4
f 379/6/4 377/6/4 380/6/4
f 380/6/4 377/6/4 381/6/4
f 381/6/4 377/6/4 382/6/4
f 380/6/4 381/6/4 383/6/4
f 383/6/4 381/6/4 384/6/4
f 385/5/4 386/5/4 388/5/4
f 388/5/4 386/5/4 389/5/4
f 387/5/4 388/5/4 391/5/4
f 389/5/4 390/5/4 391/5/4
f 388/5/4 389/5/4 391/5/4
f 391/5/4 390/5/4 392/5/4
f 387/5/4 391/5/4 393/5/4
f 392/5/4 390/5/4 394/5/4
f 387/5/4 393/5/4 395/5/4
f 393/5/4 394/5/4 395/5/4
f 395/5/4 394/5/4 396/5/4
f 394/5/4 390/5/4 397/5/4
f 396/5/4 394/5/4 397/5/4
f 397/5/4 390/5/4 398/5/4
f 396/5/4 397/5/4 399/5/4
f 399/5/4 397/5/4 400/5/4
f 403/1/5 402/1/5 401/1/5
f 404/1/5 402/1/5 403/1/5
f 409/1/5 406/1/5 405/1/5
f 410/1/5 406/1/5 409/1/5
f 411/1/5 408/1/5 407/1/5
f 412/1/5 408/1/5 411/1/5
f 417/2/5 414/2/5 413/2/5
f 418/2/5 414/2/5 417/2/5
f 421/1/5 416/1/5 415/1/5
f 422/1/5 416/1/5 421/1/5
f 423/1/5 420/1/5 419/1/5
f 424/1/5 420/1/5 423/1/5
f 429/2/5 426/2/5 425/2/5
f 430/2/5 426/2/5 429/2/5
f 431/2/5 428/2/5 427/2/5
f 432/2/5 428/2/5 431/2/5
f 437/2/5 434/2/5 433/2/5
f 438/2/5 434/2/5 437/2/5
f 439/2/5 436/2/5 435/2/5
f 440/2/5 436/2/5 439/2/5
f 443/6/5 442/6/5 441/6/5
f 444/6/5 442/6/5 443/6/5
f 449/6/5 446/6/5 445/6/5
f 450/6/5 446/6/5 449/6/5
f 451/6/5 448/6/5 447/6/5
f 452/6/5 448/6/5 451/6/5
f 457/6/5 454/6/5 453/6/5
f 458/6/5 454/6/5 457/6/5
f 461/6/5 456/6/5 455/6/5
f 462/6/5 456/6/5 461/6/5
f 463/5/5 460/5/5 459/5/5
f 464/5/5 460/5/5 463/5/5
f 469/6/5 466/6/5 465/6/5
f 470/6/5 466/6/5 469/6/5
f 475/6/5 468/6/5 467/6/5
f 476/6/5 468/6/5 475/6/5
f 477/5/5 472/5/5 471/5/5
f 478/5/5 472/5/5 477/5/5
f 479/5/5 474/5/5 473/5/5
f 480/5/5 474/5/5 479/5/5
f 483/2/5 482/2/5 481/2/5
f 484/2/5 482/2/5 483/2/5
f 487/5/5 486/5/5 485/5/5
f 488/5/5 486/5/5 487/5/5
f 493/5/5 490/5/5 489/5/5
f 494/5/5 490/5/5 493/5/5
f 495/5/5 492/5/5 491/5/5
f 496/5/5 492/5/5 495/5/5
f 501/5/5 498/5/5 497/5/5
f 502/5/5 498/5/5 501/5/5
f 503/5/5 500/5/5 499/5/5
f 504/5/5 500/5/5 503/5/5
f 507/5/5 506/5/5 505/5/5
f 508/5/5 506/5/5 507/5/5
f 509/2/6 510/2/6 511/2/6
f 511/2/6 510/2/6 512/2/6
f 513/5/6 514/5/6 515/5/6
f 515/5/6 514/5/6 516/5/6
f 517/6/6 518/6/6 521/6/6
f 521/6/6 518/6/6 522/6/6
f 519/6/6 520/6/6 527/6/6
f 527/6/6 520/6/6 528/6/6
f 523/5/6 524/5/6 529/5/6
f 529/5/6 524/5/6 530/5/6
f 525/5/6 526/5/6 531/5/6
f 531/5/6 526/5/6 532/5/6
f 533/6/6 534/6/6 537/6/6
f 537/6/6 534/6/6 538/6/6
f 535/6/6 536/6/6 541/6/6
f 541/6/6 536/6/6 542/6/6
f 539/5/6 540/5/6 543/5/6
f 543/5/6 540/5/6 544/5/6
f 545/6/6 546/6/6 549/6/6
f 549/6/6 546/6/6 550/6/6
f 547/6/6 548/6/6 551/6/6
f 551/6/6 548/6/6 552/6/6
f 553/2/6 554/2/6 555/2/6
f 555/2/6 554/2/6 556/2/6
f 557/6/6 558/6/6 559/6/6
f 559/6/6 558/6/6 560/6/6
f 561/1/6 562/1/6 563/1/6
f 563/1/6 562/1/6 564/1/6
f 564/1/6 562/1/6 565/1/6
f 565/1/6 562/1/6 566/1/6
f 561/1/6 563/1/6 567/1/6
f 564/1/6 565/1/6 568/1/6
f 568/1/6 565/1/6 569/1/6
f 566/1/6 562/1/6 570/1/6
f 568/1/6 569/1/6 571/1/6
f 569/1/6 570/1/6 571/1/6
f 561/1/6 567/1/6 571/1/6
f 567/1/6 568/1/6 571/1/6
f 570/1/6 562/1/6 572/1/6
f 571/1/6 570/1/6 572/1/6
f 573/5/6 574/5/6 577/5/6
f 577/5/6 574/5/6 578/5/6
f 575/5/6 576/5/6 579/5/6
f 579/5/6 576/5/6 580/5/6
f 581/5/6 582/5/6 585/5/6
f 585/5/6 582/5/6 586/5/6
f 583/5/6 584/5/6 587/5/6
f 587/5/6 584/5/6 588/5/6
f 589/5/6 590/5/6 593/5/6
f 593/5/6 590/5/6 594/5/6
f 591/5/6 592/5/6 595/5/6
f 595/5/6 592/5/6 596/5/6
f 597/5/6 598/5/6 599/5/6
f 599/5/6 598/5/6 600/5/6
